<svg width="484" height="429" viewBox="0 0 484 429" fill="none" xmlns="http://www.w3.org/2000/svg">
<g opacity="0.2">
<mask id="mask0_1620_44913" style="mask-type:alpha" maskUnits="userSpaceOnUse" x="0" y="0" width="484" height="429">
<path d="M29.2985 58.5968L0 29.2985L29.2985 0L58.5969 29.2985L29.2985 58.5968ZM5.05145 29.2985L29.2985 53.5454L53.5455 29.2985L29.2985 5.05145L5.05145 29.2985Z" fill="#EEEEEE"/>
<path d="M29.2985 125.613L0 96.3141L29.2985 67.0156L58.5969 96.3141L29.2985 125.613ZM5.05145 96.6509L29.2985 120.898L53.5455 96.6509L29.2985 72.4039L5.05145 96.6509Z" fill="#EEEEEE"/>
<path d="M29.2985 192.964L0 163.666L29.2985 134.367L58.5969 163.666L29.2985 192.964ZM5.05145 164.002L29.2985 188.249L53.5455 164.002L29.2985 139.755L5.05145 164.002Z" fill="#EEEEEE"/>
<path d="M29.2985 260.32L0 231.021L29.2985 201.723L58.5969 231.021L29.2985 260.32ZM5.05145 231.021L29.2985 255.268L53.5455 231.021L29.2985 206.774L5.05145 231.021Z" fill="#EEEEEE"/>
<path d="M29.2985 327.671L0 298.373L29.2985 269.074L58.5969 298.373L29.2985 327.671ZM5.05145 298.373L29.2985 322.62L53.5455 298.373L29.2985 274.126L5.05145 298.373Z" fill="#EEEEEE"/>
<path d="M29.2985 395.023L0 365.724L29.2985 336.426L58.5969 365.724L29.2985 395.023ZM5.05145 365.724L29.2985 389.971L53.5455 365.724L29.2985 341.477L5.05145 365.724Z" fill="#EEEEEE"/>
<path d="M78.1285 92.2726L48.8301 62.9742L78.1285 33.6758L107.427 62.9742L78.1285 92.2726ZM53.8815 62.9742L78.1285 87.2212L102.376 62.9742L78.1285 38.7272L53.8815 62.9742Z" fill="#EEEEEE"/>
<path d="M78.1285 159.288L48.8301 129.99L78.1285 100.691L107.427 129.99L78.1285 159.288ZM53.8815 130.327L78.1285 154.574L102.376 130.327L78.1285 106.08L53.8815 130.327Z" fill="#EEEEEE"/>
<path d="M78.1285 226.64L48.8301 197.341L78.1285 168.043L107.427 197.341L78.1285 226.64ZM53.8815 197.678L78.1285 221.925L102.376 197.678L78.1285 173.431L53.8815 197.678Z" fill="#EEEEEE"/>
<path d="M78.1285 293.995L48.8301 264.697L78.1285 235.398L107.427 264.697L78.1285 293.995ZM53.8815 264.697L78.1285 288.944L102.376 264.697L78.1285 240.45L53.8815 264.697Z" fill="#EEEEEE"/>
<path d="M78.1285 361.347L48.8301 332.048L78.1285 302.75L107.427 332.048L78.1285 361.347ZM53.8815 332.048L78.1285 356.295L102.376 332.048L78.1285 307.801L53.8815 332.048Z" fill="#EEEEEE"/>
<path d="M78.1285 428.698L48.8301 399.4L78.1285 370.102L107.427 399.4L78.1285 428.698ZM53.8815 399.4L78.1285 423.647L102.376 399.4L78.1285 375.153L53.8815 399.4Z" fill="#EEEEEE"/>
<path d="M123.592 58.5968L94.2937 29.2985L123.592 0L152.891 29.2985L123.592 58.5968ZM99.0085 29.2985L123.255 53.5454L147.502 29.2985L123.255 5.05145L99.0085 29.2985Z" fill="#EEEEEE"/>
<path d="M123.592 125.613L94.2935 96.3141L123.592 67.0156L152.89 96.3141L123.592 125.613ZM99.0082 96.6509L123.255 120.898L147.502 96.6509L123.255 72.4039L99.0082 96.6509Z" fill="#EEEEEE"/>
<path d="M123.592 192.964L94.2935 163.666L123.592 134.367L152.89 163.666L123.592 192.964ZM99.0082 164.002L123.255 188.249L147.502 164.002L123.255 139.755L99.0082 164.002Z" fill="#EEEEEE"/>
<path d="M123.592 260.32L94.2935 231.021L123.592 201.723L152.89 231.021L123.592 260.32ZM99.0082 231.021L123.255 255.268L147.502 231.021L123.255 206.774L99.0082 231.021Z" fill="#EEEEEE"/>
<path d="M123.592 327.671L94.2935 298.373L123.592 269.074L152.89 298.373L123.592 327.671ZM99.0082 298.373L123.255 322.62L147.502 298.373L123.255 274.126L99.0082 298.373Z" fill="#EEEEEE"/>
<path d="M123.592 395.023L94.2935 365.724L123.592 336.426L152.89 365.724L123.592 395.023ZM99.0082 365.724L123.255 389.971L147.502 365.724L123.255 341.477L99.0082 365.724Z" fill="#EEEEEE"/>
<path d="M172.424 92.2726L143.125 62.9742L172.424 33.6758L201.722 62.9742L172.424 92.2726ZM147.84 62.9742L172.087 87.2212L196.334 62.9742L172.087 38.7272L147.84 62.9742Z" fill="#EEEEEE"/>
<path d="M172.424 159.288L143.125 129.99L172.424 100.691L201.722 129.99L172.424 159.288ZM147.84 130.327L172.087 154.574L196.334 130.327L172.087 106.08L147.84 130.327Z" fill="#EEEEEE"/>
<path d="M172.424 226.64L143.125 197.341L172.424 168.043L201.722 197.341L172.424 226.64ZM147.84 197.678L172.087 221.925L196.334 197.678L172.087 173.431L147.84 197.678Z" fill="#EEEEEE"/>
<path d="M172.424 293.995L143.125 264.697L172.424 235.398L201.722 264.697L172.424 293.995ZM147.84 264.697L172.087 288.944L196.334 264.697L172.087 240.45L147.84 264.697Z" fill="#EEEEEE"/>
<path d="M172.424 361.347L143.125 332.048L172.424 302.75L201.722 332.048L172.424 361.347ZM147.84 332.048L172.087 356.295L196.334 332.048L172.087 307.801L147.84 332.048Z" fill="#EEEEEE"/>
<path d="M172.424 428.698L143.125 399.4L172.424 370.102L201.722 399.4L172.424 428.698ZM147.84 399.4L172.087 423.647L196.334 399.4L172.087 375.153L147.84 399.4Z" fill="#EEEEEE"/>
<path d="M217.55 58.5968L188.252 29.2985L217.55 0L246.849 29.2985L217.55 58.5968ZM192.967 29.2985L217.214 53.5454L241.461 29.2985L217.214 5.05145L192.967 29.2985Z" fill="#EEEEEE"/>
<path d="M217.55 125.613L188.252 96.3141L217.55 67.0156L246.849 96.3141L217.55 125.613ZM192.967 96.6509L217.214 120.898L241.461 96.6509L217.214 72.4039L192.967 96.6509Z" fill="#EEEEEE"/>
<path d="M217.55 192.964L188.252 163.666L217.55 134.367L246.849 163.666L217.55 192.964ZM192.967 164.002L217.214 188.249L241.461 164.002L217.214 139.755L192.967 164.002Z" fill="#EEEEEE"/>
<path d="M217.55 260.32L188.252 231.021L217.55 201.723L246.849 231.021L217.55 260.32ZM192.967 231.021L217.214 255.268L241.461 231.021L217.214 206.774L192.967 231.021Z" fill="#EEEEEE"/>
<path d="M217.55 327.671L188.252 298.373L217.55 269.074L246.849 298.373L217.55 327.671ZM192.967 298.373L217.214 322.62L241.461 298.373L217.214 274.126L192.967 298.373Z" fill="#EEEEEE"/>
<path d="M217.55 395.023L188.252 365.724L217.55 336.426L246.849 365.724L217.55 395.023ZM192.967 365.724L217.214 389.971L241.461 365.724L217.214 341.477L192.967 365.724Z" fill="#EEEEEE"/>
<path d="M266.381 92.2726L237.082 62.9742L266.381 33.6758L295.679 62.9742L266.381 92.2726ZM241.797 62.9742L266.044 87.2212L290.291 62.9742L266.044 38.7272L241.797 62.9742Z" fill="#EEEEEE"/>
<path d="M266.381 159.288L237.082 129.99L266.381 100.691L295.679 129.99L266.381 159.288ZM241.797 130.327L266.044 154.574L290.291 130.327L266.044 106.08L241.797 130.327Z" fill="#EEEEEE"/>
<path d="M266.381 226.64L237.082 197.341L266.381 168.043L295.679 197.341L266.381 226.64ZM241.797 197.678L266.044 221.925L290.291 197.678L266.044 173.431L241.797 197.678Z" fill="#EEEEEE"/>
<path d="M266.381 293.995L237.082 264.697L266.381 235.398L295.679 264.697L266.381 293.995ZM241.797 264.697L266.044 288.944L290.291 264.697L266.044 240.45L241.797 264.697Z" fill="#EEEEEE"/>
<path d="M266.381 361.347L237.082 332.048L266.381 302.75L295.679 332.048L266.381 361.347ZM241.797 332.048L266.044 356.295L290.291 332.048L266.044 307.801L241.797 332.048Z" fill="#EEEEEE"/>
<path d="M266.381 428.698L237.082 399.4L266.381 370.102L295.679 399.4L266.381 428.698ZM241.797 399.4L266.044 423.647L290.291 399.4L266.044 375.153L241.797 399.4Z" fill="#EEEEEE"/>
<path d="M311.505 58.5968L282.207 29.2985L311.505 0L340.804 29.2985L311.505 58.5968ZM287.258 29.2985L311.505 53.5454L335.753 29.2985L311.505 5.05145L287.258 29.2985Z" fill="#EEEEEE"/>
<path d="M311.505 125.613L282.207 96.3141L311.505 67.0156L340.804 96.3141L311.505 125.613ZM287.258 96.6509L311.505 120.898L335.753 96.6509L311.505 72.4039L287.258 96.6509Z" fill="#EEEEEE"/>
<path d="M311.505 192.964L282.207 163.666L311.505 134.367L340.804 163.666L311.505 192.964ZM287.258 164.002L311.505 188.249L335.753 164.002L311.505 139.755L287.258 164.002Z" fill="#EEEEEE"/>
<path d="M311.505 260.32L282.207 231.021L311.505 201.723L340.804 231.021L311.505 260.32ZM287.258 231.021L311.505 255.268L335.753 231.021L311.505 206.774L287.258 231.021Z" fill="#EEEEEE"/>
<path d="M311.505 327.671L282.207 298.373L311.505 269.074L340.804 298.373L311.505 327.671ZM287.258 298.373L311.505 322.62L335.753 298.373L311.505 274.126L287.258 298.373Z" fill="#EEEEEE"/>
<path d="M311.505 395.023L282.207 365.724L311.505 336.426L340.804 365.724L311.505 395.023ZM287.258 365.724L311.505 389.971L335.753 365.724L311.505 341.477L287.258 365.724Z" fill="#EEEEEE"/>
<path d="M360.335 92.2726L331.037 62.9742L360.335 33.6758L389.634 62.9742L360.335 92.2726ZM336.089 62.9742L360.335 87.2212L384.583 62.9742L360.335 38.7272L336.089 62.9742Z" fill="#EEEEEE"/>
<path d="M360.335 159.288L331.037 129.99L360.335 100.691L389.634 129.99L360.335 159.288ZM336.089 130.327L360.335 154.574L384.583 130.327L360.335 106.08L336.089 130.327Z" fill="#EEEEEE"/>
<path d="M360.335 226.64L331.037 197.341L360.335 168.043L389.634 197.341L360.335 226.64ZM336.089 197.678L360.335 221.925L384.583 197.678L360.335 173.431L336.089 197.678Z" fill="#EEEEEE"/>
<path d="M360.335 293.995L331.037 264.697L360.335 235.398L389.634 264.697L360.335 293.995ZM336.089 264.697L360.335 288.944L384.583 264.697L360.335 240.45L336.089 264.697Z" fill="#EEEEEE"/>
<path d="M360.335 361.347L331.037 332.048L360.335 302.75L389.634 332.048L360.335 361.347ZM336.089 332.048L360.335 356.295L384.583 332.048L360.335 307.801L336.089 332.048Z" fill="#EEEEEE"/>
<path d="M360.335 428.698L331.037 399.4L360.335 370.102L389.634 399.4L360.335 428.698ZM336.089 399.4L360.335 423.647L384.583 399.4L360.335 375.153L336.089 399.4Z" fill="#EEEEEE"/>
<path d="M405.464 58.5968L376.166 29.2985L405.464 0L434.763 29.2985L405.464 58.5968ZM381.217 29.2985L405.464 53.5454L429.711 29.2985L405.464 5.05145L381.217 29.2985Z" fill="#EEEEEE"/>
<path d="M405.464 125.613L376.166 96.3141L405.464 67.0156L434.763 96.3141L405.464 125.613ZM381.217 96.6509L405.464 120.898L429.711 96.6509L405.464 72.4039L381.217 96.6509Z" fill="#EEEEEE"/>
<path d="M405.464 192.964L376.166 163.666L405.464 134.367L434.763 163.666L405.464 192.964ZM381.217 164.002L405.464 188.249L429.711 164.002L405.464 139.755L381.217 164.002Z" fill="#EEEEEE"/>
<path d="M405.464 260.318L376.166 231.019L405.464 201.721L434.763 231.019L405.464 260.318ZM381.217 231.019L405.464 255.266L429.711 231.019L405.464 206.772L381.217 231.019Z" fill="#EEEEEE"/>
<path d="M405.464 327.671L376.166 298.373L405.464 269.074L434.763 298.373L405.464 327.671ZM381.217 298.373L405.464 322.62L429.711 298.373L405.464 274.126L381.217 298.373Z" fill="#EEEEEE"/>
<path d="M405.464 395.023L376.166 365.724L405.464 336.426L434.763 365.724L405.464 395.023ZM381.217 365.724L405.464 389.971L429.711 365.724L405.464 341.477L381.217 365.724Z" fill="black"/>
<path d="M454.294 92.2726L424.996 62.9742L454.294 33.6758L483.593 62.9742L454.294 92.2726ZM430.048 62.9742L454.294 87.2212L478.541 62.9742L454.294 38.7272L430.048 62.9742Z" fill="#EEEEEE"/>
<path d="M454.294 159.288L424.996 129.99L454.294 100.691L483.593 129.99L454.294 159.288ZM430.048 130.327L454.294 154.574L478.541 130.327L454.294 106.08L430.048 130.327Z" fill="#EEEEEE"/>
<path d="M454.294 226.64L424.996 197.341L454.294 168.043L483.593 197.341L454.294 226.64ZM430.048 197.678L454.294 221.925L478.541 197.678L454.294 173.431L430.048 197.678Z" fill="#EEEEEE"/>
<path d="M454.294 293.993L424.996 264.695L454.294 235.396L483.593 264.695L454.294 293.993ZM430.048 264.695L454.294 288.942L478.541 264.695L454.294 240.448L430.048 264.695Z" fill="#EEEEEE"/>
<path d="M454.294 361.347L424.996 332.048L454.294 302.75L483.593 332.048L454.294 361.347ZM430.048 332.048L454.294 356.295L478.541 332.048L454.294 307.801L430.048 332.048Z" fill="#EEEEEE"/>
<path d="M454.294 428.698L424.996 399.4L454.294 370.102L483.593 399.4L454.294 428.698ZM430.048 399.4L454.294 423.647L478.541 399.4L454.294 375.153L430.048 399.4Z" fill="#EEEEEE"/>
</mask>
<g mask="url(#mask0_1620_44913)">
<rect x="-38.5" y="141.5" width="343" height="365" fill="#D9D9D9" stroke="#EEEEEE"/>
</g>
</g>
</svg>
