<svg width="155" height="44" viewBox="0 0 155 44" fill="none" xmlns="http://www.w3.org/2000/svg">
<path d="M52.4813 14.5487C52.4813 22.4033 60.925 23.4636 60.925 29.1189C60.925 31.0825 60.061 31.7894 58.6864 31.7894C57.3119 31.7894 56.4479 31.0825 56.4479 29.1189V27.1553H52.3635V28.844C52.3635 33.2425 54.5628 35.756 58.8043 35.756C63.0457 35.756 65.245 33.2425 65.245 28.844C65.245 20.9894 56.8013 19.9291 56.8013 14.2738C56.8013 12.3102 57.5868 11.564 58.9613 11.564C60.3359 11.564 61.1213 12.3102 61.1213 14.2738V15.4127H65.2057V14.5487C65.2057 10.1502 63.0457 7.63672 58.8435 7.63672C54.6413 7.63672 52.4813 10.1502 52.4813 14.5487Z" fill="white"/>
<path d="M71.4967 35.4418H75.8167V26.3305L81.2756 7.9509H77.152L73.8531 20.4789L70.5542 7.9509H66.0378L71.4967 26.3305V35.4418Z" fill="white"/>
<path d="M88.9921 7.9509H82.9834V35.4418H86.7535V16.0018L89.9739 35.4418H94.0583L97.043 15.7269V35.4418H101.127V7.9509H95.1186L92.1732 27.4694L88.9921 7.9509Z" fill="white"/>
<path d="M103.013 11.8782H107.529V35.4418H111.849V11.8782H116.366V7.9509H103.013V11.8782Z" fill="white"/>
<path d="M131.7 35.4418C131.268 34.4207 131.228 33.4389 131.228 32.1036V27.8622C131.228 24.9953 130.521 22.9138 128.361 22.0105C130.286 21.1073 131.189 19.2614 131.189 16.4338V14.2738C131.189 10.0324 129.265 7.9509 124.788 7.9509H118.268V35.4418H122.588V24.2491H124.081C126.044 24.2491 126.908 25.1916 126.908 27.7444V32.0644C126.908 34.3029 127.065 34.7349 127.301 35.4418H131.7ZM124.67 11.8782C126.201 11.8782 126.869 12.7422 126.869 14.7058V17.4156C126.869 19.6149 125.887 20.3218 124.277 20.3218H122.588V11.8782H124.67Z" fill="white"/>
<path d="M134.07 35.4418H138.39V7.9509H134.07V35.4418Z" fill="white"/>
<path d="M149.992 25.1916V29.1189C149.992 31.0825 149.128 31.7894 147.753 31.7894C146.379 31.7894 145.515 31.0825 145.515 29.1189V14.2738C145.515 12.3102 146.379 11.564 147.753 11.564C149.128 11.564 149.992 12.3102 149.992 14.2738V17.2193H154.076V14.5487C154.076 10.1502 151.877 7.63672 147.635 7.63672C143.394 7.63672 141.195 10.1502 141.195 14.5487V28.844C141.195 33.2425 143.394 35.756 147.635 35.756C151.877 35.756 154.076 33.2425 154.076 28.844V25.1916H149.992Z" fill="white"/>
<g clip-path="url(#clip0_1737_35205)">
<path fill-rule="evenodd" clip-rule="evenodd" d="M14.8435 13.8359L12.4829 17.9171L10.2367 14.0209L12.5856 9.93971H28.9926L32.4763 3.89722H9.09898L4.49225 11.8878C7.94805 17.8579 11.3985 23.828 14.8435 29.798H21.8109C20.061 26.769 18.312 23.7404 16.564 20.7123L16.0796 19.874H32.0476L38.9151 31.7652L32.0476 43.6374H6.85289L0.0558404 31.6507L3.46906 25.7227L5.72985 29.6175L4.50695 31.7506L9.11368 39.7412H29.7883L34.4097 31.7506L29.803 23.76H22.8356C24.3134 26.3339 25.7922 28.9074 27.272 31.4804L27.4394 31.7461L26.3163 33.6943H12.5974C8.44473 26.5135 4.29748 19.3382 0.155622 12.1682L0 11.8834L6.85289 -0.0078125H39.2411L31.2563 13.8359H14.8435Z" fill="#7F46F0"/>
</g>
<defs>
<clipPath id="clip0_1737_35205">
<rect width="39.2425" height="43.6364" fill="white"/>
</clipPath>
</defs>
</svg>
