<svg width="183" height="48" viewBox="0 0 183 48" fill="none" xmlns="http://www.w3.org/2000/svg">
<g clip-path="url(#clip0_1737_35213)">
<path fill-rule="evenodd" clip-rule="evenodd" d="M26.7092 47.085C31.9041 46.4785 36.7423 44.1366 40.4406 40.4383C44.1389 36.7401 46.4807 31.9019 47.0872 26.707H38.3565C37.8058 29.5901 36.4005 32.2408 34.3233 34.3146C32.2462 36.3884 29.5932 37.7894 26.7092 38.3354V47.085Z" fill="#F7936F"/>
<path fill-rule="evenodd" clip-rule="evenodd" d="M34.465 3.24705L34.52 3.21108C40.1694 -0.0350014 44.7374 -0.989545 46.8642 1.13916C52.881 7.15407 35.9138 25.8636 30.8875 30.8899C27.8648 33.9215 24.6615 36.7675 21.2951 39.4123V47.0805C18.5886 46.7733 15.9589 45.9844 13.5303 44.7511L13.4753 44.7871C7.82593 48.0331 3.25988 48.9876 1.13117 46.8703C-1.78538 43.9538 1.6273 37.24 3.24087 34.4693C2.01524 32.0376 1.22679 29.4093 0.911456 26.7044H9.66106C10.0437 28.7352 10.853 30.6617 12.0355 32.3564C13.218 34.0511 14.7467 35.4755 16.5207 36.5355C15.5112 37.2684 14.4847 37.9654 13.4204 38.6188C11.8617 39.6093 10.2482 40.5448 8.57782 41.3876C7.27053 40.2299 6.10124 38.9252 5.09312 37.4995C3.33183 40.8933 2.74474 43.3875 3.68031 44.3174C7.69719 48.2945 25.7646 31.6986 28.7361 28.7271C31.8997 25.5677 34.8588 22.21 37.5956 18.6745C36.6938 16.3698 35.2206 14.3323 33.3147 12.7536C31.4087 11.175 29.1325 10.1071 26.7002 9.65022V0.900531C29.4072 1.20509 32.0374 1.99415 34.465 3.22999V3.24705ZM42.9022 10.493C44.6635 7.09918 45.2506 4.60496 44.315 3.67507C43.3794 2.74518 40.9061 3.34555 37.5104 5.10684C39.5979 6.58832 41.4207 8.41114 42.9022 10.4987V10.493Z" fill="#F16063"/>
<path fill-rule="evenodd" clip-rule="evenodd" d="M21.2984 0.916016C16.1034 1.52292 11.2652 3.86523 7.56697 7.56382C3.86872 11.2624 1.52683 16.1008 0.92041 21.2959H9.6701C10.2133 18.4125 11.6137 15.76 13.6883 13.6851C15.7628 11.6102 18.4151 10.2094 21.2984 9.66566V0.916016Z" fill="#F7936F"/>
</g>
<path d="M87.6136 29.5561C87.6136 30.5675 87.4205 31.522 87.0341 32.4197C86.6591 33.3061 86.1364 34.0845 85.4659 34.755C84.8068 35.4141 84.0284 35.9368 83.1307 36.3232C82.2443 36.6982 81.2955 36.8857 80.2841 36.8857C79.375 36.8857 78.5 36.7266 77.6591 36.4084C76.8295 36.0902 76.0795 35.6243 75.4091 35.0107C74.7386 35.6243 73.983 36.0902 73.142 36.4084C72.3011 36.7266 71.4261 36.8857 70.517 36.8857C69.5057 36.8857 68.5511 36.6982 67.6534 36.3232C66.767 35.9368 65.9886 35.4141 65.3182 34.755C64.6591 34.0845 64.1364 33.3061 63.75 32.4197C63.375 31.522 63.1875 30.5675 63.1875 29.5561V12.1016H68.0795V29.5561C68.0795 29.897 68.142 30.2209 68.267 30.5277C68.392 30.8232 68.5625 31.0845 68.7784 31.3118C69.0057 31.5277 69.267 31.6982 69.5625 31.8232C69.858 31.9482 70.1761 32.0107 70.517 32.0107C70.858 32.0107 71.1761 31.9482 71.4716 31.8232C71.767 31.6982 72.0227 31.5277 72.2386 31.3118C72.4659 31.0845 72.642 30.8232 72.767 30.5277C72.892 30.2209 72.9545 29.897 72.9545 29.5561V12.1016H77.8466V29.5561C77.8466 29.897 77.9091 30.2209 78.0341 30.5277C78.1591 30.8232 78.3295 31.0845 78.5455 31.3118C78.7727 31.5277 79.0341 31.6982 79.3295 31.8232C79.625 31.9482 79.9432 32.0107 80.2841 32.0107C80.625 32.0107 80.9432 31.9482 81.2386 31.8232C81.5341 31.6982 81.7898 31.5277 82.0057 31.3118C82.233 31.0845 82.4091 30.8232 82.5341 30.5277C82.6705 30.2209 82.7386 29.897 82.7386 29.5561V12.1016H87.6136V29.5561Z" fill="white"/>
<path d="M96.9886 13.3288C96.9886 13.7607 96.9034 14.1641 96.733 14.5391C96.5739 14.9141 96.3523 15.2436 96.0682 15.5277C95.7841 15.8004 95.4489 16.022 95.0625 16.1925C94.6875 16.3516 94.2841 16.4311 93.8523 16.4311C93.4205 16.4311 93.0114 16.3516 92.625 16.1925C92.25 16.022 91.9205 15.8004 91.6364 15.5277C91.3636 15.2436 91.142 14.9141 90.9716 14.5391C90.8125 14.1641 90.733 13.7607 90.733 13.3288C90.733 12.9084 90.8125 12.5107 90.9716 12.1357C91.142 11.7493 91.3636 11.4197 91.6364 11.147C91.9205 10.8629 92.25 10.6413 92.625 10.4822C93.0114 10.3118 93.4205 10.2266 93.8523 10.2266C94.2841 10.2266 94.6875 10.3118 95.0625 10.4822C95.4489 10.6413 95.7841 10.8629 96.0682 11.147C96.3523 11.4197 96.5739 11.7493 96.733 12.1357C96.9034 12.5107 96.9886 12.9084 96.9886 13.3288ZM96.1875 36.5447H91.5V18.2891H96.1875V36.5447Z" fill="white"/>
<path d="M109.773 36.5447H99.1364V31.9084H109.773C110.091 31.9084 110.364 31.7947 110.591 31.5675C110.818 31.3402 110.932 31.0675 110.932 30.7493C110.932 30.4197 110.818 30.2038 110.591 30.1016C110.364 29.9993 110.091 29.9482 109.773 29.9482H104.932C104.125 29.9482 103.369 29.7947 102.665 29.4879C101.96 29.1811 101.347 28.7663 100.824 28.2436C100.301 27.7095 99.8864 27.0902 99.5795 26.3857C99.2841 25.6811 99.1364 24.9254 99.1364 24.1186C99.1364 23.3118 99.2841 22.5561 99.5795 21.8516C99.8864 21.147 100.301 20.5334 100.824 20.0107C101.347 19.4879 101.96 19.0788 102.665 18.7834C103.369 18.4766 104.125 18.3232 104.932 18.3232H114.358V22.9595H104.932C104.614 22.9595 104.341 23.0732 104.114 23.3004C103.886 23.5277 103.773 23.8004 103.773 24.1186C103.773 24.4482 103.886 24.7322 104.114 24.9709C104.341 25.1982 104.614 25.3118 104.932 25.3118H109.773C110.568 25.3118 111.318 25.4482 112.023 25.7209C112.727 25.9822 113.341 26.3516 113.864 26.8288C114.386 27.3061 114.801 27.88 115.108 28.5504C115.415 29.2209 115.568 29.9538 115.568 30.7493C115.568 31.5561 115.415 32.3118 115.108 33.0163C114.801 33.7095 114.386 34.3232 113.864 34.8572C113.341 35.38 112.727 35.7947 112.023 36.1016C111.318 36.397 110.568 36.5447 109.773 36.5447Z" fill="white"/>
<path d="M122.71 36.5447H118.057V11.0277H122.71V19.0902C123.267 18.6697 123.841 18.3743 124.432 18.2038C125.023 18.022 125.625 17.9311 126.239 17.9311C127.364 17.9311 128.42 18.147 129.409 18.5788C130.398 18.9993 131.256 19.5845 131.983 20.3345C132.722 21.0732 133.301 21.9425 133.722 22.9425C134.153 23.9311 134.369 24.9879 134.369 26.1129V36.5447H129.682V26.1129H129.716C129.716 25.6357 129.625 25.1868 129.443 24.7663C129.261 24.3345 129.011 23.9595 128.693 23.6413C128.375 23.3232 128.006 23.0732 127.585 22.8913C127.165 22.7095 126.716 22.6186 126.239 22.6186C125.75 22.6186 125.29 22.7095 124.858 22.8913C124.426 23.0732 124.051 23.3232 123.733 23.6413C123.415 23.9595 123.165 24.3345 122.983 24.7663C122.801 25.1868 122.71 25.6357 122.71 26.1129V36.5447Z" fill="white"/>
<path d="M144.955 32.0788C145.136 32.1357 145.318 32.1754 145.5 32.1982C145.682 32.2095 145.864 32.2152 146.045 32.2152C146.5 32.2152 146.938 32.1527 147.358 32.0277C147.778 31.9027 148.17 31.7266 148.534 31.4993C148.909 31.2607 149.239 30.9766 149.523 30.647C149.818 30.3061 150.057 29.9311 150.239 29.522L153.648 32.9482C153.216 33.5618 152.716 34.1129 152.148 34.6016C151.591 35.0902 150.983 35.505 150.324 35.8459C149.676 36.1868 148.989 36.4425 148.261 36.6129C147.545 36.7947 146.807 36.8857 146.045 36.8857C144.761 36.8857 143.551 36.647 142.415 36.1697C141.29 35.6925 140.301 35.0277 139.449 34.1754C138.608 33.3232 137.943 32.3118 137.455 31.1413C136.966 29.9595 136.722 28.6641 136.722 27.255C136.722 25.8118 136.966 24.4936 137.455 23.3004C137.943 22.1072 138.608 21.0902 139.449 20.2493C140.301 19.4084 141.29 18.755 142.415 18.2891C143.551 17.8232 144.761 17.5902 146.045 17.5902C146.807 17.5902 147.551 17.6811 148.278 17.8629C149.006 18.0447 149.693 18.3061 150.341 18.647C151 18.9879 151.614 19.4084 152.182 19.9084C152.75 20.397 153.25 20.9482 153.682 21.5618L144.955 32.0788ZM147.341 22.4822C147.125 22.4027 146.909 22.3516 146.693 22.3288C146.489 22.3061 146.273 22.2947 146.045 22.2947C145.409 22.2947 144.807 22.4141 144.239 22.6527C143.682 22.88 143.193 23.2095 142.773 23.6413C142.364 24.0732 142.04 24.5959 141.801 25.2095C141.562 25.8118 141.443 26.4936 141.443 27.255C141.443 27.4254 141.449 27.6186 141.46 27.8345C141.483 28.0504 141.511 28.272 141.545 28.4993C141.591 28.7152 141.642 28.9254 141.699 29.13C141.756 29.3345 141.83 29.5163 141.92 29.6754L147.341 22.4822Z" fill="white"/>
<path d="M160.722 36.5447H156.034V11.0277H160.722V36.5447Z" fill="white"/>
<path d="M168.972 43.4993H164.284V18.2891H165.409L167.267 20.4879C167.688 20.0902 168.148 19.7152 168.648 19.3629C169.148 19.0107 169.665 18.7095 170.199 18.4595C170.744 18.1982 171.307 17.9936 171.886 17.8459C172.466 17.6982 173.051 17.6243 173.642 17.6243C174.926 17.6243 176.131 17.8572 177.256 18.3232C178.392 18.7777 179.381 19.4254 180.222 20.2663C181.074 21.1072 181.744 22.1243 182.233 23.3175C182.722 24.4993 182.966 25.8118 182.966 27.255C182.966 28.755 182.722 30.1072 182.233 31.3118C181.744 32.505 181.074 33.522 180.222 34.3629C179.381 35.1925 178.392 35.8288 177.256 36.272C176.131 36.7152 174.926 36.9368 173.642 36.9368C173.233 36.9368 172.824 36.8913 172.415 36.8004C172.017 36.7095 171.619 36.5902 171.222 36.4425C170.835 36.2834 170.449 36.1072 170.062 35.9141C169.688 35.7209 169.324 35.522 168.972 35.3175V43.4993ZM178.295 27.255C178.295 26.4822 178.17 25.7891 177.92 25.1754C177.682 24.5618 177.352 24.0447 176.932 23.6243C176.511 23.1925 176.017 22.8629 175.449 22.6357C174.881 22.4084 174.278 22.2947 173.642 22.2947C173.006 22.2947 172.403 22.4084 171.835 22.6357C171.278 22.8629 170.79 23.1925 170.369 23.6243C169.949 24.0447 169.614 24.5618 169.364 25.1754C169.125 25.7891 169.006 26.4822 169.006 27.255C169.006 27.9936 169.125 28.6697 169.364 29.2834C169.614 29.897 169.949 30.4197 170.369 30.8516C170.79 31.2834 171.278 31.6186 171.835 31.8572C172.403 32.0959 173.006 32.2152 173.642 32.2152C174.278 32.2152 174.881 32.0959 175.449 31.8572C176.017 31.6186 176.511 31.2834 176.932 30.8516C177.352 30.4197 177.682 29.897 177.92 29.2834C178.17 28.6697 178.295 27.9936 178.295 27.255Z" fill="white"/>
<defs>
<clipPath id="clip0_1737_35213">
<rect width="48.142" height="48" fill="white"/>
</clipPath>
</defs>
</svg>
